<?xml version="1.0" standalone="no"?><!DOCTYPE svg PUBLIC "-//W3C//DTD SVG 1.1//EN" "http://www.w3.org/Graphics/SVG/1.1/DTD/svg11.dtd"><svg t="1738334154831" class="icon" viewBox="0 0 1024 1024" version="1.1" xmlns="http://www.w3.org/2000/svg" p-id="13187" xmlns:xlink="http://www.w3.org/1999/xlink" width="200" height="200"><path d="M704.304 342.496c12.84 37.144 22.088 75.064 25.128 114.368 3.776 48.76 2.048 97.176-8.232 145.136-0.28 1.32-0.872 2.56-1.312 3.84-3.224 0.008-6.512-0.392-9.664 0.096-26.632 4.184-53.24 8.52-79.848 12.832-27.504 4.456-55.048 8.736-82.504 13.496-9.728 1.68-21.768-0.328-25.696 13.128-0.112 0.368-1.232 0.432-1.88 0.64l1.328-80.408-1.352-194.016 12.816-2.2c20.96-3.432 41.92-6.912 62.896-10.248 25.032-3.976 50.088-7.84 75.136-11.72 11.048-1.72 22.112-3.296 33.184-4.944z" fill="#439934" p-id="13188"></path><path d="M493.832 880.432c-13.52-11.624-27.512-22.736-40.472-34.96-69.736-65.776-120.744-143.192-145.864-236.528-6.92-25.688-11.536-51.792-13.016-78.336-1.04-18.576-2.544-37.32-1.232-55.8 3.496-49.152 10.6-97.832 25.016-145.176l0.792-1.104c1.4 1.864 3.416 3.512 4.128 5.616 14.072 41.44 28.04 82.912 41.936 124.408 43.664 130.4 87.272 260.832 131.008 391.2 0.856 2.544 3.072 4.632 4.664 6.928l-6.96 23.752z" fill="#45A538" p-id="13189"></path><path d="M704.304 342.496c-11.072 1.648-22.144 3.224-33.192 4.928-25.048 3.88-50.104 7.744-75.136 11.72-20.976 3.336-41.936 6.816-62.896 10.248l-12.816 2.2-0.096-8.36c-0.424-6.872-1.152-13.736-1.232-20.608-0.552-43.824-0.896-87.648-1.44-131.472-0.336-27.432-0.84-54.856-1.4-82.28-0.344-17.04-0.712-34.088-1.48-51.104-0.416-9.144-1.888-18.24-2.488-27.384-0.336-5.256 0.128-10.552 0.232-15.832 6.536 12.664 12.928 25.424 19.648 37.992 10.616 19.872 27.528 34.512 42.752 50.488 60.184 63.136 102.912 136.544 129.544 219.464z" fill="#46A037" p-id="13190"></path><path d="M520.288 646.024c0.648-0.208 1.776-0.272 1.88-0.64 3.928-13.456 15.968-11.448 25.696-13.128 27.456-4.752 55-9.04 82.504-13.496 26.608-4.312 53.216-8.648 79.848-12.832 3.152-0.496 6.44-0.088 9.664-0.096-4.976 17.76-8.896 35.904-15.208 53.176-7.168 19.592-15.84 38.712-25.048 57.456a393.136 393.136 0 0 1-50.824 78.104c-15.352 18.464-32.464 35.528-49.616 52.384-9.48 9.32-20.656 16.912-31.056 25.288l-2.696-1.84-9.712-8.304-10.048-22.024a331.216 331.216 0 0 1-11.152-78.704l0.184-4.488 1.368-19.408c0.456-6.624 1.064-13.24 1.344-19.88 1.032-23.856 1.928-47.712 2.872-71.568z" fill="#409433" p-id="13191"></path><path d="M520.288 646.024c-0.944 23.856-1.84 47.712-2.856 71.576-0.28 6.64-0.888 13.256-1.344 19.88l-6.12 2.312c-13.592-40.016-27.192-79.608-40.496-119.304-22-65.672-43.736-131.448-65.704-197.136a35991.096 35991.096 0 0 0-53.6-158.936c-0.84-2.48-3.256-4.416-4.936-6.608l39.168-72.016c1.344 2.336 3.12 4.52 3.968 7.032a49339.808 49339.808 0 0 1 54.144 160.944c23.328 69.84 46.512 139.736 69.824 209.584 0.928 2.792 2.464 5.368 3.928 8.496l5.36-6.24-1.336 80.416z" fill="#4FAA41" p-id="13192"></path><path d="M345.24 257.816c1.68 2.192 4.088 4.128 4.936 6.608a35991.096 35991.096 0 0 1 53.6 158.936c21.968 65.688 43.704 131.464 65.704 197.136 13.296 39.688 26.896 79.288 40.496 119.304l6.12-2.312-1.368 19.408-1.24 4.472c-2.128 21.248-3.92 42.544-6.512 63.744-1.304 10.624-4.072 21.056-6.176 31.576-1.584-2.296-3.808-4.384-4.664-6.928-43.736-130.376-87.344-260.8-131.008-391.2a31111.776 31111.776 0 0 0-41.936-124.408c-0.712-2.104-2.72-3.752-4.128-5.616l26.176-70.72z" fill="#4AA73C" p-id="13193"></path><path d="M521.616 565.616l-5.36 6.24c-1.464-3.128-3-5.712-3.928-8.496-23.304-69.848-46.496-139.744-69.824-209.584a49339.808 49339.808 0 0 0-54.144-160.944c-0.84-2.512-2.616-4.704-3.968-7.032l48.44-63.72c1.528 2.04 3.704 3.856 4.496 6.152 13.448 39.368 26.776 78.784 40.024 118.224 12.376 36.832 24.568 73.72 37.088 110.504 0.84 2.464 3.76 4.208 5.712 6.288l0.096 8.36c0.464 64.656 0.92 129.336 1.368 194.008z" fill="#57AE47" p-id="13194"></path><path d="M520.168 363.232c-1.952-2.08-4.872-3.824-5.712-6.288-12.52-36.784-24.712-73.672-37.088-110.504-13.248-39.44-26.576-78.848-40.024-118.224-0.792-2.296-2.968-4.112-4.496-6.152 15.752-15.424 31.016-31.4 47.4-46.112 14.568-13.072 26.28-27.088 26.816-47.744 0.024-0.856 0.472-1.712 1.16-4.112l4.152 10.448c-0.104 5.288-0.576 10.576-0.232 15.832 0.6 9.144 2.072 18.24 2.488 27.384 0.768 17.016 1.136 34.064 1.48 51.104 0.552 27.424 1.056 54.848 1.4 82.28 0.536 43.824 0.888 87.648 1.44 131.472 0.064 6.888 0.784 13.744 1.216 20.616z" fill="#60B24F" p-id="13195"></path><path d="M500.784 856.68c2.104-10.52 4.872-20.96 6.176-31.576 2.6-21.192 4.384-42.496 6.512-63.744l0.528-0.08 0.528 0.088a331.216 331.216 0 0 0 11.152 78.704c-1.408 1.856-3.4 3.512-4.144 5.608-5.816 16.4-11.296 32.928-17.144 49.328-0.8 2.24-3.024 3.984-4.592 5.952l-5.976-20.528 6.96-23.752z" fill="#A9AA88" p-id="13196"></path><path d="M499.808 900.968c1.568-1.968 3.8-3.712 4.592-5.952 5.848-16.4 11.336-32.92 17.144-49.328 0.744-2.096 2.728-3.752 4.144-5.608l10.04 22.032c-1.984 2.816-4.72 5.352-5.824 8.488l-19.232 56.472c-0.792 2.264-3.496 3.864-5.304 5.776l-5.56-31.88z" fill="#B6B598" p-id="13197"></path><path d="M505.368 932.84c1.816-1.904 4.512-3.512 5.304-5.776l19.232-56.472c1.096-3.128 3.84-5.672 5.824-8.488l9.72 8.296c-4.696 4.64-7.304 10-5.736 16.776l-2.952 9.664c-1.344 1.656-3.288 3.096-3.952 4.992-6.712 19.224-13.12 38.552-19.88 57.776-0.856 2.44-3.232 4.352-4.912 6.496-0.872-11.096-1.76-22.168-2.648-33.264z" fill="#C2C1A7" p-id="13198"></path><path d="M508.024 966.104c1.672-2.152 4.048-4.064 4.912-6.496 6.76-19.216 13.168-38.544 19.88-57.776 0.664-1.888 2.6-3.336 3.952-4.992l-4.072 44.36c-1.088 1.256-2.664 2.352-3.184 3.816-4.6 12.912-8.936 25.92-13.552 38.832-0.952 2.664-2.776 5.016-4.2 7.504-1.264-1.656-3.528-3.256-3.632-4.984-0.408-6.728-0.128-13.504-0.104-20.264z" fill="#CECDB7" p-id="13199"></path><path d="M511.752 991.352c1.424-2.496 3.248-4.848 4.2-7.504 4.624-12.904 8.952-25.912 13.552-38.832 0.52-1.464 2.104-2.552 3.184-3.816l0.096 29.12-9.744 24.992-11.288-3.96z" fill="#DBDAC7" p-id="13200"></path><path d="M523.04 995.32l9.744-24.992 2.008 29.568-11.752-4.576z" fill="#EBE9DC" p-id="13201"></path><path d="M539.712 887.184c-1.568-6.776 1.032-12.144 5.736-16.776l2.696 1.84-8.432 14.936z" fill="#CECDB7" p-id="13202"></path><path d="M514.528 761.376l-0.528-0.088-0.528 0.08 1.24-4.472-0.184 4.48z" fill="#4FAA41" p-id="13203"></path></svg>