<?xml version="1.0" standalone="no"?><!DOCTYPE svg PUBLIC "-//W3C//DTD SVG 1.1//EN" "http://www.w3.org/Graphics/SVG/1.1/DTD/svg11.dtd"><svg t="1738334914662" class="icon" viewBox="0 0 1024 1024" version="1.1" xmlns="http://www.w3.org/2000/svg" p-id="1629" xmlns:xlink="http://www.w3.org/1999/xlink" width="200" height="200"><path d="M733.866667 11.733333L288 13.141333a11.050667 11.050667 0 0 0-8.661333 4.181334L2.389333 367.018667a11.050667 11.050667 0 0 0-2.133333 9.344l100.522667 434.944a11.093333 11.093333 0 0 0 5.973333 7.424l402.346667 192.469333a11.008 11.008 0 0 0 9.557333-0.085333l401.109333-194.816a11.050667 11.050667 0 0 0 6.016-7.466667L1023.701333 373.333333a11.008 11.008 0 0 0-2.176-9.386666L742.528 15.957333A11.050667 11.050667 0 0 0 733.866667 11.733333z m-5.248 22.058667l272.426666 339.882667-95.658666 425.130666-391.552 190.165334-392.746667-187.818667L23.04 376.618667 293.333333 35.157333zM488.96 121.898667c-39.808 0-78.506667 4.266667-103.509333 14.165333h-0.085334c-66.304 24.277333-116.266667 89.813333-131.157333 168.618667v0.170666c-13.184 62.421333-16.725333 115.328-23.722667 163.157334-2.986667 20.522667-6.784 40.106667-12.074666 59.178666-26.794667 21.205333-46.037333 53.888-53.077334 91.221334v0.170666c-4.949333 23.338667-7.722667 44.373333-10.112 64h-27.477333v22.101334h379.349333c-2.602667 19.797333-5.205333 42.496-7.722666 60.586666H324.096v22.058667h338.730667c-10.325333-3.328-20.736-9.301333-32.256-21.418667h-29.738667l-36.266667 20.821334-9.898666-16.896 6.912-3.925334h-45.610667c4.821333-33.109333 7.253333-68.309333 15.914667-109.397333v-0.170667c9.386667-49.664 40.96-90.112 80.853333-104.661333l0.170667-0.085333h0.085333c13.568-5.418667 39.594667-8.746667 65.834667-8.746667 26.154667 0 53.077333 3.2 69.205333 8.832 39.893333 14.549333 71.509333 55.04 80.853333 104.661333v0.170667c8.704 41.088 11.093333 76.288 15.914667 109.397333h-31.658667l6.912 3.925334-9.941333 16.896-36.266667-20.821334h-32c-9.344 10.666667-20.224 17.578667-31.872 21.418667h187.392v-22.101333h-35.925333c-4.394667-31.701333-7.722667-71.253333-16.298667-111.914667v-0.085333a176.64 176.64 0 0 0-11.264-36.821334h79.488v-22.058666h-90.88a148.821333 148.821333 0 0 0-34.133333-38.656h76.8v-22.101334H765.866667a378.112 378.112 0 0 1-8.234667-33.066666h63.317333v-22.101334h-67.242666c-0.554667-3.456-1.152-6.869333-1.664-10.410666-6.997333-47.786667-10.496-100.693333-23.68-163.157334v-0.170666c-14.848-78.848-64.853333-144.341333-131.2-168.618667l-0.085334-0.085333h-0.085333c-27.733333-9.685333-68.096-14.08-107.989333-14.08z m0 16.469333c38.570667 0 78.208 4.693333 102.570667 13.184h0.085333c59.733333 21.930667 106.666667 82.517333 120.576 156.416v0.128c12.928 61.269333 16.426667 113.493333 23.552 162.346667 3.242667 21.973333 7.381333 43.221333 13.44 64.213333-19.157333-5.76-44.8-8.405333-70.314667-8.405333-5.12 0-10.069333 0.128-15.018666 0.341333l-79.488-79.573333a92.586667 92.586667 0 0 0 4.693333-10.496l90.88 52.48 5.546667-9.557334-93.226667-53.845333c0.682667-2.944 1.152-5.973333 1.536-8.96l98.218667 26.282667 2.901333-10.581334-100.437333-26.88c-0.853333-49.194667-43.008-88.661333-94.208-88.661333-51.413333 0-93.696 39.722667-94.122667 89.216l-98.261333 26.325333 2.816 10.666667 96.085333-25.813333c0.426667 3.242667 1.024 6.442667 1.749333 9.557333L317.269333 479.573333l5.504 9.472 89.045334-51.498666c1.450667 3.797333 3.157333 7.509333 5.12 11.008l-54.016 54.016a296.917333 296.917333 0 0 0-44.586667-3.2c-25.728 0-50.602667 2.730667-67.328 9.386666a113.834667 113.834667 0 0 0-12.16 5.290667c3.242667-14.293333 5.845333-28.8 7.978667-43.562667 7.168-48.810667 10.581333-101.12 23.509333-162.346666l0.085333-0.042667v-0.085333c13.909333-73.941333 60.842667-134.528 120.661334-156.416h0.085333l0.170667-0.085334c20.821333-8.277333 58.922667-13.098667 97.578666-13.098666zM361.514667 221.610667a55.253333 55.253333 0 0 0-41.173334 21.418666l-4.992 6.528 13.056 10.069334 5.12-6.485334a39.381333 39.381333 0 0 1 28.714667-15.018666 39.253333 39.253333 0 0 1 28.586667 11.178666l5.930666 5.717334 11.562667-11.733334-5.802667-5.845333a55.168 55.168 0 0 0-41.002666-15.786667z m272.64 0a54.997333 54.997333 0 0 0-40.96 15.829333l-5.888 5.845333 11.690666 11.733334 5.802667-5.717334a39.381333 39.381333 0 0 1 28.672-11.178666 39.381333 39.381333 0 0 1 28.757333 15.018666l5.077334 6.485334 13.098666-10.069334-5.12-6.528c-9.813333-12.8-25.045333-20.736-41.130666-21.418666zM363.946667 286.208c-27.392 0-49.664 22.954667-49.664 50.773333 0 27.733333 22.272 50.645333 49.664 50.645334 27.434667 0 49.664-22.869333 49.664-50.688 0-27.776-22.229333-50.773333-49.664-50.773334z m267.648 0c-27.434667 0-49.578667 22.954667-49.578667 50.773333 0 27.733333 22.186667 50.645333 49.578667 50.645334 27.434667 0 49.664-22.869333 49.664-50.688 0-27.776-22.229333-50.773333-49.664-50.773334z m-267.648 16.512c18.261333 0 33.109333 15.146667 33.109333 34.218667 0 19.072-14.848 34.133333-33.109333 34.133333a33.493333 33.493333 0 0 1-33.066667-34.133333c0-1.493333 0.085333-2.986667 0.256-4.394667 2.986667 8.149333 10.581333 13.568 18.986667 13.568a20.778667 20.778667 0 0 0 20.352-21.162667 20.906667 20.906667 0 0 0-16.341334-20.736 32.384 32.384 0 0 1 9.813334-1.493333z m267.648 0c18.261333 0 33.152 15.146667 33.152 34.218667 0 19.072-14.890667 34.133333-33.152 34.133333a33.493333 33.493333 0 0 1-32.853334-38.4c3.072 8.106667 10.581333 13.44 18.944 13.44a20.736 20.736 0 0 0 20.437334-21.162667 20.949333 20.949333 0 0 0-16.341334-20.650666 32.213333 32.213333 0 0 1 9.813334-1.578667z m-131.413334 30.549333c43.178667 0 77.610667 33.066667 77.610667 73.514667 0 40.405333-34.432 73.472-77.610667 73.472s-77.653333-33.066667-77.653333-73.472c0-40.448 34.474667-73.514667 77.653333-73.514667z m-0.085333 22.528c-6.058667 0-11.008 1.834667-15.146667 3.242667a34.304 34.304 0 0 1-9.898666 2.304c-4.565333 0-8.533333 2.005333-11.434667 5.418667a24.234667 24.234667 0 0 0-4.437333 8.832c-1.706667 5.717333-2.645333 11.434667-3.413334 13.44a11.776 11.776 0 0 0 1.365334 10.666666c1.408 2.389333 3.029333 4.266667 4.992 6.229334 3.84 3.925333 8.789333 7.808 13.738666 11.434666 5.12 3.754667 10.112 7.082667 13.909334 9.557334l-0.341334 3.84c-1.834667 1.536-5.973333 4.352-13.824 7.594666a22.741333 22.741333 0 0 1-12.757333 1.066667 18.346667 18.346667 0 0 1-10.069333-7.338667c0.64-5.888 1.877333-12.501333 2.901333-19.157333l-16.042667-4.053333c-2.133333 10.154667-2.858667 18.346667-4.010666 27.306666l1.578666 2.517334c6.101333 9.557333 13.568 14.677333 21.589334 16.725333a38.741333 38.741333 0 0 0 22.186666-1.408 66.986667 66.986667 0 0 0 18.944-10.325333c3.754667 2.858667 10.410667 7.424 19.029334 10.325333a38.741333 38.741333 0 0 0 22.186666 1.408 37.034667 37.034667 0 0 0 21.632-16.725333l1.578667-2.517334a268.458667 268.458667 0 0 0-4.096-27.178666l-16.085333 3.925333c1.365333 6.314667 2.176 13.653333 2.986666 19.242667a18.517333 18.517333 0 0 1-10.112 7.253333 22.741333 22.741333 0 0 1-12.8-1.066667c-7.594667-2.901333-11.605333-5.973333-13.866666-7.594666l-0.256-3.584c3.84-2.474667 8.917333-5.845333 14.336-9.813334 4.906667-3.626667 9.856-7.509333 13.738666-11.434666a30.72 30.72 0 0 0 4.992-6.229334 11.648 11.648 0 0 0 1.322667-10.666666c-0.768-2.005333-1.664-7.722667-3.413333-13.44a24.064 24.064 0 0 0-4.394667-8.832 14.634667 14.634667 0 0 0-11.434667-5.418667 34.773333 34.773333 0 0 1-9.984-2.304c-4.138667-1.408-9.045333-3.242667-15.104-3.242667z m0.085333 16.469334c2.432 0 5.717333 1.024 9.813334 2.432 3.84 1.28 8.874667 2.986667 14.378666 3.242666 1.706667 4.352 2.56 10.112 3.84 14.421334a15.402667 15.402667 0 0 1-1.749333 1.92 113.493333 113.493333 0 0 1-11.776 9.728c-7.04 5.205333-11.562667 8.021333-14.592 9.941333a225.578667 225.578667 0 0 1-14.506667-9.941333 109.098667 109.098667 0 0 1-11.733333-9.728 14.506667 14.506667 0 0 1-1.706667-2.005334c1.493333-5.077333 1.962667-9.984 3.797334-14.506666 3.413333 0.512 10.496-1.792 14.336-3.072a35.712 35.712 0 0 1 9.898666-2.432z m-137.984 26.026666a27.093333 27.093333 0 0 0-26.069333 22.058667l46.250667-12.330667a26.197333 26.197333 0 0 0-20.181334-9.728z m270.336 0a26.026667 26.026667 0 0 0-18.602666 7.978667c15.018667 4.096 29.44 7.850667 44.074666 11.733333a26.965333 26.965333 0 0 0-25.472-19.712z m-26.581333 25.898667c-0.298667 1.493333-0.085333 2.986667-0.085333 4.394667l39.296 22.698666a27.648 27.648 0 0 0 11.776-13.354666l-50.986667-13.738667z m-217.002667 2.133333l-50.346666 13.44c3.328 6.4 8.832 11.264 15.445333 13.482667l34.005333-19.626667c0.768-2.517333 0.64-5.12 0.896-7.253333z m189.482667 30.464l70.656 70.741334a178.773333 178.773333 0 0 0-35.242667 6.229333l-40.533333-70.272a107.093333 107.093333 0 0 0 5.12-6.698667z m-155.562667 1.28c1.706667 2.346667 3.541333 5.034667 5.504 7.210667l-28.074666 48.384a113.322667 113.322667 0 0 0-11.776-5.077333l-0.085334-0.085334a140.8 140.8 0 0 0-12.458666-3.498666z m142.421334 13.525334l38.058666 66.005333c-26.581333 10.709333-49.024 30.933333-64.981333 56.746667h-70.485333c-11.178667-32-31.616-58.88-57.941334-75.264l26.581334-46.165334c16.810667 14.805333 39.210667 23.850667 63.658666 23.850667a96 96 0 0 0 65.109334-25.173333zM318.293333 515.84c24.490667 0 49.792 3.114667 64.768 8.32 36.992 13.610667 66.346667 51.328 75.093334 97.493333l0.042666 0.085334v0.085333c4.650667 21.888 7.381333 41.813333 9.685334 60.757333H420.693333a16.469333 16.469333 0 0 0-21.077333 0H388.693333a57.642667 57.642667 0 0 0-3.328-17.834666 34.090667 34.090667 0 0 0 24.277334 10.154666c19.2 0 34.730667-16 34.730666-35.328a35.157333 35.157333 0 0 0-34.730666-35.328 35.072 35.072 0 0 0-33.749334 43.349334 63.786667 63.786667 0 0 0-50.346666-23.850667c-34.048 0-62.293333 26.069333-63.146667 58.88h-14.592a16.469333 16.469333 0 0 0-21.077333 0H171.861333c2.304-18.986667 4.949333-38.912 9.557334-60.8l0.085333-0.085333v-0.085334c8.746667-46.250667 38.144-84.053333 75.264-97.578666h0.085333l0.170667-0.085334c12.586667-4.992 36.821333-8.149333 61.312-8.106666z m-81.493333 47.146667a38.314667 38.314667 0 0 0-28.586667 14.848l-5.077333 6.570666 13.098667 10.112 5.077333-6.613333a22.4 22.4 0 0 1 16.170667-8.405333 22.186667 22.186667 0 0 1 16.085333 6.272l5.888 5.802666 11.605333-11.733333-5.845333-5.845333a38.186667 38.186667 0 0 0-28.416-11.008z m174.677333 0a38.4 38.4 0 0 0-28.501333 11.008l-5.845333 5.845333 11.648 11.733333 5.845333-5.802666a22.272 22.272 0 0 1 16.085333-6.272 22.4 22.4 0 0 1 16.170667 8.405333l5.077333 6.613333 13.098667-10.112-5.12-6.570666a38.144 38.144 0 0 0-28.458667-14.848z m180.138667 31.36a40.405333 40.405333 0 0 0-30.165333 15.573333l-4.992 6.570667 13.056 10.112 5.12-6.613334a24.234667 24.234667 0 0 1 17.621333-9.088 24.362667 24.362667 0 0 1 17.664 6.784l5.973333 5.802667 11.52-11.733333-5.888-5.845334a40.192 40.192 0 0 0-29.909333-11.562666z m186.624 0a40.192 40.192 0 0 0-29.866667 11.562666l-5.973333 5.845334 11.605333 11.733333 5.930667-5.802667a24.362667 24.362667 0 0 1 17.664-6.784 24.234667 24.234667 0 0 1 17.664 9.088l5.077333 6.613334 13.056-10.112-4.992-6.570667a40.405333 40.405333 0 0 0-30.165333-15.573333z m-539.733333 9.898666a35.157333 35.157333 0 0 0-34.773334 35.328c0 19.328 15.573333 35.328 34.730667 35.328 19.2 0 34.773333-16 34.773333-35.328a35.157333 35.157333 0 0 0-34.773333-35.328z m235.434666 12.16h52.992a176.512 176.512 0 0 0-11.221333 36.864v0.085334c-2.133333 10.112-3.925333 19.797333-5.418667 29.226666h-25.685333a715.52 715.52 0 0 0-10.069333-64l-0.085334-0.085333c-0.128-0.682667-0.384-1.365333-0.512-2.090667z m-235.477333 4.352a18.346667 18.346667 0 0 1 18.176 18.816 18.346667 18.346667 0 0 1-18.176 18.858667c-9.386667 0-17.066667-7.296-18.005333-16.938667a12.714667 12.714667 0 0 0 9.173333 3.925334 13.226667 13.226667 0 0 0 13.013333-13.482667 13.525333 13.525333 0 0 0-5.504-11.008c0.426667-0.042667 0.853333-0.170667 1.322667-0.170667z m171.264 0c10.026667 0 18.218667 8.234667 18.218667 18.816a18.474667 18.474667 0 0 1-18.218667 18.858667 18.218667 18.218667 0 0 1-18.005333-17.28 12.8 12.8 0 0 0 10.922666 6.186667 13.226667 13.226667 0 0 0 12.970667-13.525334 13.397333 13.397333 0 0 0-8.832-12.714666c0.981333-0.170667 1.92-0.341333 2.944-0.341334z m183.637333 17.664a36.906667 36.906667 0 0 0-36.522666 37.12c0 20.394667 16.298667 37.290667 36.522666 37.290667a37.034667 37.034667 0 0 0 36.565334-37.248 36.992 36.992 0 0 0-36.565334-37.162667z m183.125334 0a36.992 36.992 0 0 0-34.730667 48.64 68.138667 68.138667 0 0 0-55.253333-27.818666c-36.096 0-65.962667 27.733333-66.901334 62.421333l-65.066666 17.408 2.816 10.581333 63.018666-16.810666c0.170667 1.194667 0.384 2.56 0.64 3.712l-60.501333 34.858666 5.589333 9.472 58.325334-33.664c10.026667 23.552 34.176 40.106667 62.08 40.106667 28.16 0 52.608-16.938667 62.421333-40.832l59.648 34.389333 5.546667-9.472-61.866667-35.669333c0.213333-1.066667 0.341333-2.261333 0.512-3.328l64.469333 17.237333 2.858667-10.581333-66.688-17.834667a61.354667 61.354667 0 0 0-4.565333-21.333333c6.698667 7.936 16.64 12.928 27.648 12.928a36.992 36.992 0 0 0 36.522666-37.248 36.906667 36.906667 0 0 0-36.522666-37.162667z m-450.858667 1.834667c25.514667 0 45.696 18.944 46.592 42.325333h-17.493333c0.298667-0.426667 0.682667-0.853333 0.981333-1.408a10.24 10.24 0 0 0 1.066667-9.386666c-0.213333-0.682667-0.896-4.352-2.133334-8.362667a17.749333 17.749333 0 0 0-3.328-6.656 12.032 12.032 0 0 0-9.6-4.608 21.290667 21.290667 0 0 1-5.504-1.322667c-2.645333-0.896-6.058667-2.133333-10.581333-2.133333-4.522667 0-8.021333 1.237333-10.666667 2.133333a20.906667 20.906667 0 0 1-5.418666 1.322667 12.373333 12.373333 0 0 0-9.6 4.608 18.090667 18.090667 0 0 0-3.413334 6.656c-1.237333 4.010667-1.834667 7.68-2.048 8.32a10.325333 10.325333 0 0 0 0.981334 9.386667c0.341333 0.597333 0.725333 0.981333 1.066666 1.450666h-17.493333c0.853333-23.381333 21.077333-42.325333 46.592-42.325333z m267.733333 14.677333c11.050667 0 20.053333 9.002667 20.053334 20.650667a20.352 20.352 0 0 1-20.053334 20.736 20.138667 20.138667 0 0 1-19.925333-19.328 13.738667 13.738667 0 0 0 10.496 4.906667c7.68 0 13.909333-6.4 13.909333-14.421334a14.506667 14.506667 0 0 0-6.656-12.330666c0.725333-0.085333 1.408-0.213333 2.133334-0.213334z m183.125334 0c11.093333 0 20.010667 9.002667 20.010666 20.650667 0 11.605333-8.96 20.736-20.010666 20.736a20.352 20.352 0 0 1-20.053334-20.736c0-0.682667 0.085333-1.322667 0.170667-2.005333a14.08 14.08 0 0 0 13.312 10.24c7.68 0 13.909333-6.4 13.909333-14.421334a14.421333 14.421333 0 0 0-10.922666-14.165333 20.266667 20.266667 0 0 1 3.584-0.298667z m-450.858667 10.24c0.896 0 2.688 0.426667 5.333333 1.322667 3.669333 1.28 4.992 1.664 7.936 2.090667 0.512 1.749333 0.938667 3.754667 1.408 5.504a62.933333 62.933333 0 0 1-7.168 5.888c-1.621333 1.194667-2.730667 1.92-3.754666 2.602666h-7.509334c-1.024-0.682667-2.218667-1.408-3.84-2.56a68.352 68.352 0 0 1-7.168-5.973333l1.450667-5.461333c4.565333-0.597333 6.229333-1.706667 7.893333-2.090667a21.504 21.504 0 0 1 5.418667-1.322667z m360.874667 10.666667c28.202667 0 50.517333 21.418667 50.517333 47.488 0 6.656-1.493333 12.970667-4.096 18.773333l-0.085333-1.024-0.938667-6.656a104.234667 104.234667 0 0 0-1.706667-10.24l-16.085333 3.968 1.877333 11.690667a10.24 10.24 0 0 1-4.906666 3.157333 12.757333 12.757333 0 0 1-7.168-0.597333c-3.712-1.28-5.632-2.688-7.68-4.010667 2.432-1.578667 5.546667-3.584 8.448-5.717333 3.413333-2.56 6.826667-5.248 9.642666-8.106667a23.125333 23.125333 0 0 0 3.925334-4.736 10.453333 10.453333 0 0 0 1.109333-9.6c-0.341333-0.810667-0.938667-4.778667-2.261333-8.96a18.944 18.944 0 0 0-3.584-6.954666 12.202667 12.202667 0 0 0-9.813334-4.565334 24.149333 24.149333 0 0 1-5.973333-1.578666c-2.773333-0.938667-6.485333-2.346667-11.221333-2.346667-4.693333 0-8.32 1.365333-11.178667 2.346667a24.533333 24.533333 0 0 1-5.973333 1.578666 12.544 12.544 0 0 0-9.813334 4.565334 18.602667 18.602667 0 0 0-3.541333 6.912c-1.28 4.266667-1.92 8.192-2.218667 9.002666a10.496 10.496 0 0 0 1.066667 9.6 22.784 22.784 0 0 0 3.84 4.736c2.816 2.858667 6.229333 5.546667 9.642667 8.106667 2.901333 2.133333 5.888 4.053333 8.277333 5.632a24.32 24.32 0 0 1-7.68 4.096 13.013333 13.013333 0 0 1-7.253333 0.597333 10.112 10.112 0 0 1-4.736-3.242666c0.341333-3.84 1.109333-7.552 1.706666-11.605334l-16.042666-4.010666c-1.365333 6.229333-1.92 12.202667-2.688 17.450666a44.885333 44.885333 0 0 1-3.84-18.261333c0-26.069333 22.229333-47.488 50.432-47.488z m0 26.581333c1.109333 0 3.157333 0.426667 5.973333 1.408 2.816 1.066667 7.210667 2.218667 8.789333 2.346667l1.493334 6.656c-1.706667 1.706667-4.778667 4.266667-7.850667 6.485333-4.053333 2.986667-5.973333 4.053333-8.405333 5.589334-2.389333-1.536-4.266667-2.602667-8.32-5.546667a52.736 52.736 0 0 1-7.850667-6.698667l1.493333-6.485333a44.373333 44.373333 0 0 0 8.789334-2.346667 22.314667 22.314667 0 0 1 5.888-1.408z m-94.72 15.061334a18.346667 18.346667 0 0 0-16.426667 11.605333l27.989333-7.509333a17.749333 17.749333 0 0 0-11.562666-4.096z m184.874666 0a17.664 17.664 0 0 0-9.386666 2.986666l25.728 6.826667a18.176 18.176 0 0 0-16.341334-9.813333z m-172.970666 24.192l-25.898667 6.912a18.602667 18.602667 0 0 0 5.333333 4.821333z m167.466666 0.085333l17.365334 9.984a18.901333 18.901333 0 0 0 3.712-4.352z m-84.736 9.984c2.858667 2.005333 7.04 4.608 12.16 6.314667a29.013333 29.013333 0 0 0 16.597334 1.024 24.32 24.32 0 0 0 9.898666-5.162667 51.242667 51.242667 0 0 1-38.570666 16.810667c-15.189333 0-28.586667-6.186667-37.76-16a24.746667 24.746667 0 0 0 8.832 4.352c6.144 1.536 11.946667 0.597333 16.682666-1.024 5.12-1.706667 9.301333-4.266667 12.16-6.314667z m-406.357333 68.693333v22.058667h265.130667v-22.101333z m154.410667 55.125334v22.058666H652.8v-22.058666z" fill="#892CA0" p-id="1630"></path></svg>